<mxfile host="app.diagrams.net" modified="2023-10-10T00:50:42.627Z" agent="Mozilla/5.0 (Windows NT 10.0; Win64; x64) AppleWebKit/537.36 (KHTML, like Gecko) Chrome/117.0.0.0 Safari/537.36" etag="OWpDGT8E0E-G9BEx2wf3" version="21.6.8" type="device">
  <diagram name="Página-1" id="yfsGrHFLRcuCW_4Or4hE">
    <mxGraphModel dx="1435" dy="782" grid="1" gridSize="10" guides="1" tooltips="1" connect="1" arrows="1" fold="1" page="1" pageScale="1" pageWidth="827" pageHeight="1169" math="0" shadow="0">
      <root>
        <mxCell id="0" />
        <mxCell id="1" parent="0" />
        <mxCell id="n8j8MZOQE-FzGDoBBmRm-1" value="Pedido" style="shape=umlFrame;whiteSpace=wrap;html=1;pointerEvents=0;recursiveResize=0;container=1;collapsible=0;width=160;" vertex="1" parent="1">
          <mxGeometry x="40" y="40" width="730" height="670" as="geometry" />
        </mxCell>
        <mxCell id="n8j8MZOQE-FzGDoBBmRm-15" style="edgeStyle=orthogonalEdgeStyle;rounded=0;orthogonalLoop=1;jettySize=auto;html=1;entryX=0;entryY=0.5;entryDx=0;entryDy=0;" edge="1" parent="n8j8MZOQE-FzGDoBBmRm-1" source="n8j8MZOQE-FzGDoBBmRm-3" target="n8j8MZOQE-FzGDoBBmRm-10">
          <mxGeometry relative="1" as="geometry" />
        </mxCell>
        <mxCell id="n8j8MZOQE-FzGDoBBmRm-3" value="-do/Acompanhar(String)" style="rounded=1;whiteSpace=wrap;html=1;" vertex="1" parent="n8j8MZOQE-FzGDoBBmRm-1">
          <mxGeometry x="130" y="150" width="140" height="80" as="geometry" />
        </mxCell>
        <mxCell id="n8j8MZOQE-FzGDoBBmRm-18" style="edgeStyle=orthogonalEdgeStyle;rounded=0;orthogonalLoop=1;jettySize=auto;html=1;exitX=0.5;exitY=1;exitDx=0;exitDy=0;" edge="1" parent="n8j8MZOQE-FzGDoBBmRm-1" source="n8j8MZOQE-FzGDoBBmRm-4" target="n8j8MZOQE-FzGDoBBmRm-3">
          <mxGeometry relative="1" as="geometry" />
        </mxCell>
        <mxCell id="n8j8MZOQE-FzGDoBBmRm-35" style="edgeStyle=orthogonalEdgeStyle;rounded=0;orthogonalLoop=1;jettySize=auto;html=1;entryX=0;entryY=0.363;entryDx=0;entryDy=0;entryPerimeter=0;exitX=0;exitY=0.5;exitDx=0;exitDy=0;" edge="1" parent="n8j8MZOQE-FzGDoBBmRm-1" source="n8j8MZOQE-FzGDoBBmRm-4" target="n8j8MZOQE-FzGDoBBmRm-31">
          <mxGeometry relative="1" as="geometry">
            <mxPoint x="30" y="160" as="sourcePoint" />
            <mxPoint x="140" y="560" as="targetPoint" />
            <Array as="points">
              <mxPoint x="30" y="535" />
            </Array>
          </mxGeometry>
        </mxCell>
        <mxCell id="n8j8MZOQE-FzGDoBBmRm-4" value="" style="ellipse;fillColor=strokeColor;html=1;" vertex="1" parent="n8j8MZOQE-FzGDoBBmRm-1">
          <mxGeometry x="30" y="130" width="30" height="30" as="geometry" />
        </mxCell>
        <mxCell id="n8j8MZOQE-FzGDoBBmRm-5" value="" style="ellipse;html=1;shape=endState;fillColor=strokeColor;" vertex="1" parent="n8j8MZOQE-FzGDoBBmRm-1">
          <mxGeometry x="670" y="380" width="30" height="30" as="geometry" />
        </mxCell>
        <mxCell id="n8j8MZOQE-FzGDoBBmRm-6" value="" style="endArrow=none;html=1;rounded=0;entryX=0;entryY=0.25;entryDx=0;entryDy=0;exitX=1;exitY=0.25;exitDx=0;exitDy=0;" edge="1" parent="n8j8MZOQE-FzGDoBBmRm-1">
          <mxGeometry width="50" height="50" relative="1" as="geometry">
            <mxPoint x="270" y="180" as="sourcePoint" />
            <mxPoint x="130" y="180" as="targetPoint" />
          </mxGeometry>
        </mxCell>
        <mxCell id="n8j8MZOQE-FzGDoBBmRm-9" value="Acompanhando Pedido" style="text;html=1;align=center;verticalAlign=middle;resizable=0;points=[];autosize=1;strokeColor=none;fillColor=none;" vertex="1" parent="n8j8MZOQE-FzGDoBBmRm-1">
          <mxGeometry x="125" y="150" width="150" height="30" as="geometry" />
        </mxCell>
        <mxCell id="n8j8MZOQE-FzGDoBBmRm-17" style="edgeStyle=orthogonalEdgeStyle;rounded=0;orthogonalLoop=1;jettySize=auto;html=1;entryX=0.5;entryY=0;entryDx=0;entryDy=0;" edge="1" parent="n8j8MZOQE-FzGDoBBmRm-1" source="n8j8MZOQE-FzGDoBBmRm-10" target="n8j8MZOQE-FzGDoBBmRm-5">
          <mxGeometry relative="1" as="geometry" />
        </mxCell>
        <mxCell id="n8j8MZOQE-FzGDoBBmRm-21" style="edgeStyle=orthogonalEdgeStyle;rounded=0;orthogonalLoop=1;jettySize=auto;html=1;exitX=0.5;exitY=1;exitDx=0;exitDy=0;entryX=0.5;entryY=0;entryDx=0;entryDy=0;" edge="1" parent="n8j8MZOQE-FzGDoBBmRm-1" source="n8j8MZOQE-FzGDoBBmRm-10" target="n8j8MZOQE-FzGDoBBmRm-20">
          <mxGeometry relative="1" as="geometry" />
        </mxCell>
        <mxCell id="n8j8MZOQE-FzGDoBBmRm-10" value="" style="rounded=1;whiteSpace=wrap;html=1;" vertex="1" parent="n8j8MZOQE-FzGDoBBmRm-1">
          <mxGeometry x="410" y="150" width="140" height="80" as="geometry" />
        </mxCell>
        <mxCell id="n8j8MZOQE-FzGDoBBmRm-11" value="" style="endArrow=none;html=1;rounded=0;entryX=0;entryY=0.25;entryDx=0;entryDy=0;exitX=1;exitY=0.25;exitDx=0;exitDy=0;" edge="1" parent="n8j8MZOQE-FzGDoBBmRm-1">
          <mxGeometry width="50" height="50" relative="1" as="geometry">
            <mxPoint x="550" y="180" as="sourcePoint" />
            <mxPoint x="410" y="180" as="targetPoint" />
          </mxGeometry>
        </mxCell>
        <mxCell id="n8j8MZOQE-FzGDoBBmRm-12" value="Status do Pedido" style="text;html=1;align=center;verticalAlign=middle;resizable=0;points=[];autosize=1;strokeColor=none;fillColor=none;" vertex="1" parent="n8j8MZOQE-FzGDoBBmRm-1">
          <mxGeometry x="425" y="150" width="110" height="30" as="geometry" />
        </mxCell>
        <mxCell id="n8j8MZOQE-FzGDoBBmRm-16" value="Visualizando Pedido" style="text;html=1;align=center;verticalAlign=middle;resizable=0;points=[];autosize=1;strokeColor=none;fillColor=none;" vertex="1" parent="n8j8MZOQE-FzGDoBBmRm-1">
          <mxGeometry x="270" y="160" width="130" height="30" as="geometry" />
        </mxCell>
        <mxCell id="n8j8MZOQE-FzGDoBBmRm-25" style="edgeStyle=orthogonalEdgeStyle;rounded=0;orthogonalLoop=1;jettySize=auto;html=1;exitX=0.5;exitY=1;exitDx=0;exitDy=0;entryX=0.5;entryY=0;entryDx=0;entryDy=0;" edge="1" parent="n8j8MZOQE-FzGDoBBmRm-1" source="n8j8MZOQE-FzGDoBBmRm-20" target="n8j8MZOQE-FzGDoBBmRm-22">
          <mxGeometry relative="1" as="geometry" />
        </mxCell>
        <mxCell id="n8j8MZOQE-FzGDoBBmRm-20" value="" style="rhombus;" vertex="1" parent="n8j8MZOQE-FzGDoBBmRm-1">
          <mxGeometry x="465" y="310" width="30" height="30" as="geometry" />
        </mxCell>
        <mxCell id="n8j8MZOQE-FzGDoBBmRm-22" value="" style="rounded=1;whiteSpace=wrap;html=1;" vertex="1" parent="n8j8MZOQE-FzGDoBBmRm-1">
          <mxGeometry x="410" y="400" width="140" height="80" as="geometry" />
        </mxCell>
        <mxCell id="n8j8MZOQE-FzGDoBBmRm-23" value="" style="endArrow=none;html=1;rounded=0;entryX=0;entryY=0.25;entryDx=0;entryDy=0;exitX=1;exitY=0.25;exitDx=0;exitDy=0;" edge="1" parent="n8j8MZOQE-FzGDoBBmRm-1">
          <mxGeometry width="50" height="50" relative="1" as="geometry">
            <mxPoint x="550" y="430" as="sourcePoint" />
            <mxPoint x="410" y="430" as="targetPoint" />
          </mxGeometry>
        </mxCell>
        <mxCell id="n8j8MZOQE-FzGDoBBmRm-29" value="Status do Pedido" style="text;html=1;align=center;verticalAlign=middle;resizable=0;points=[];autosize=1;strokeColor=none;fillColor=none;" vertex="1" parent="n8j8MZOQE-FzGDoBBmRm-1">
          <mxGeometry x="420" y="400" width="110" height="30" as="geometry" />
        </mxCell>
        <mxCell id="n8j8MZOQE-FzGDoBBmRm-41" style="edgeStyle=orthogonalEdgeStyle;rounded=0;orthogonalLoop=1;jettySize=auto;html=1;exitX=1;exitY=0.5;exitDx=0;exitDy=0;entryX=0;entryY=0.5;entryDx=0;entryDy=0;" edge="1" parent="n8j8MZOQE-FzGDoBBmRm-1" source="n8j8MZOQE-FzGDoBBmRm-31" target="n8j8MZOQE-FzGDoBBmRm-37">
          <mxGeometry relative="1" as="geometry">
            <Array as="points">
              <mxPoint x="330" y="545" />
              <mxPoint x="330" y="555" />
            </Array>
          </mxGeometry>
        </mxCell>
        <mxCell id="n8j8MZOQE-FzGDoBBmRm-31" value="" style="rounded=1;whiteSpace=wrap;html=1;" vertex="1" parent="n8j8MZOQE-FzGDoBBmRm-1">
          <mxGeometry x="140" y="505" width="140" height="80" as="geometry" />
        </mxCell>
        <mxCell id="n8j8MZOQE-FzGDoBBmRm-32" value="" style="endArrow=none;html=1;rounded=0;entryX=0;entryY=0.25;entryDx=0;entryDy=0;exitX=1;exitY=0.25;exitDx=0;exitDy=0;" edge="1" parent="n8j8MZOQE-FzGDoBBmRm-1">
          <mxGeometry width="50" height="50" relative="1" as="geometry">
            <mxPoint x="280" y="535" as="sourcePoint" />
            <mxPoint x="140" y="535" as="targetPoint" />
          </mxGeometry>
        </mxCell>
        <mxCell id="n8j8MZOQE-FzGDoBBmRm-33" value="Cancelando Pedido" style="text;html=1;align=center;verticalAlign=middle;resizable=0;points=[];autosize=1;strokeColor=none;fillColor=none;" vertex="1" parent="n8j8MZOQE-FzGDoBBmRm-1">
          <mxGeometry x="140" y="505" width="130" height="30" as="geometry" />
        </mxCell>
        <mxCell id="n8j8MZOQE-FzGDoBBmRm-34" value="-do/Cancelar()" style="text;html=1;align=center;verticalAlign=middle;resizable=0;points=[];autosize=1;strokeColor=none;fillColor=none;" vertex="1" parent="n8j8MZOQE-FzGDoBBmRm-1">
          <mxGeometry x="155" y="540" width="100" height="30" as="geometry" />
        </mxCell>
        <mxCell id="n8j8MZOQE-FzGDoBBmRm-28" value="Não Atualizado" style="text;html=1;align=center;verticalAlign=middle;resizable=0;points=[];autosize=1;strokeColor=none;fillColor=none;" vertex="1" parent="n8j8MZOQE-FzGDoBBmRm-1">
          <mxGeometry x="380" y="350" width="100" height="30" as="geometry" />
        </mxCell>
        <mxCell id="n8j8MZOQE-FzGDoBBmRm-44" style="edgeStyle=orthogonalEdgeStyle;rounded=0;orthogonalLoop=1;jettySize=auto;html=1;" edge="1" parent="n8j8MZOQE-FzGDoBBmRm-1" source="n8j8MZOQE-FzGDoBBmRm-37" target="n8j8MZOQE-FzGDoBBmRm-5">
          <mxGeometry relative="1" as="geometry" />
        </mxCell>
        <mxCell id="n8j8MZOQE-FzGDoBBmRm-37" value="" style="rounded=1;whiteSpace=wrap;html=1;" vertex="1" parent="n8j8MZOQE-FzGDoBBmRm-1">
          <mxGeometry x="395" y="515" width="140" height="80" as="geometry" />
        </mxCell>
        <mxCell id="n8j8MZOQE-FzGDoBBmRm-38" value="" style="endArrow=none;html=1;rounded=0;entryX=0;entryY=0.25;entryDx=0;entryDy=0;exitX=1;exitY=0.25;exitDx=0;exitDy=0;" edge="1" parent="n8j8MZOQE-FzGDoBBmRm-1">
          <mxGeometry width="50" height="50" relative="1" as="geometry">
            <mxPoint x="535" y="545" as="sourcePoint" />
            <mxPoint x="395" y="545" as="targetPoint" />
          </mxGeometry>
        </mxCell>
        <mxCell id="n8j8MZOQE-FzGDoBBmRm-40" value="-do/Cancelar()" style="text;html=1;align=center;verticalAlign=middle;resizable=0;points=[];autosize=1;strokeColor=none;fillColor=none;" vertex="1" parent="n8j8MZOQE-FzGDoBBmRm-1">
          <mxGeometry x="410" y="550" width="100" height="30" as="geometry" />
        </mxCell>
        <mxCell id="n8j8MZOQE-FzGDoBBmRm-43" value="Pedido Cancelado" style="text;html=1;align=center;verticalAlign=middle;resizable=0;points=[];autosize=1;strokeColor=none;fillColor=none;" vertex="1" parent="n8j8MZOQE-FzGDoBBmRm-1">
          <mxGeometry x="400" y="515" width="120" height="30" as="geometry" />
        </mxCell>
        <mxCell id="n8j8MZOQE-FzGDoBBmRm-42" value="Cancelando Pedido" style="text;html=1;align=center;verticalAlign=middle;resizable=0;points=[];autosize=1;strokeColor=none;fillColor=none;" vertex="1" parent="n8j8MZOQE-FzGDoBBmRm-1">
          <mxGeometry x="275" y="515" width="130" height="30" as="geometry" />
        </mxCell>
        <mxCell id="n8j8MZOQE-FzGDoBBmRm-26" value="else" style="text;html=1;align=center;verticalAlign=middle;resizable=0;points=[];autosize=1;strokeColor=none;fillColor=none;" vertex="1" parent="1">
          <mxGeometry x="465" y="288" width="50" height="30" as="geometry" />
        </mxCell>
      </root>
    </mxGraphModel>
  </diagram>
</mxfile>
